<?xml version="1.0" standalone="no"?>
<!DOCTYPE svg PUBLIC "-//W3C//DTD SVG 20010904//EN"
 "http://www.w3.org/TR/2001/REC-SVG-20010904/DTD/svg10.dtd">
<svg version="1.0" xmlns="http://www.w3.org/2000/svg"
 width="353.000000pt" height="241.000000pt" viewBox="0 0 353.000000 241.000000"
 preserveAspectRatio="xMidYMid meet">

<g transform="translate(0.000000,241.000000) scale(0.100000,-0.100000)"
fill="#000000" stroke="none">
<path d="M10 1205 l0 -1195 1760 0 1760 0 0 245 -1 245 -64 0 c-47 0 -68 -4
-81 -17 -13 -13 -19 -14 -22 -5 -2 6 -10 12 -17 12 -8 0 -18 7 -23 16 -7 13
-22 16 -73 12 -35 -2 -78 -11 -96 -20 -27 -14 -34 -14 -44 -2 -6 8 -19 14 -28
14 -9 0 -22 5 -29 12 -8 8 -12 9 -12 1 0 -6 6 -13 13 -16 7 -3 2 -9 -12 -14
-34 -14 -36 -53 -3 -53 13 0 35 -9 49 -20 29 -22 93 -27 93 -7 0 9 3 8 9 -2 6
-9 20 -11 47 -7 22 3 46 2 54 -4 12 -7 9 -12 -18 -21 -36 -12 -38 -34 -3 -33
11 0 21 -3 21 -8 0 -4 -6 -8 -12 -8 -9 0 -8 -4 2 -10 13 -8 12 -10 -2 -10 -10
0 -18 4 -18 9 0 5 -9 7 -20 4 -11 -3 -26 0 -34 6 -10 9 -15 8 -20 -4 -4 -12
-15 -14 -43 -10 -21 3 -68 2 -105 -3 -38 -5 -68 -5 -68 0 0 4 -16 8 -36 8 -19
0 -33 -4 -30 -8 3 -5 -37 -9 -89 -9 -52 0 -92 3 -90 8 3 4 -5 16 -18 26 l-24
17 34 32 c37 35 42 54 15 54 -11 0 -27 9 -37 20 -10 12 -25 18 -32 16 -7 -3
-13 -1 -13 5 0 6 -8 8 -17 5 -11 -3 -36 7 -61 23 -26 18 -50 27 -62 24 -11 -3
-20 0 -20 6 0 6 -7 11 -15 11 -8 0 -15 -5 -15 -12 0 -6 -3 -8 -7 -4 -11 11 68
76 100 83 15 3 30 10 33 14 3 5 29 9 57 9 45 1 50 2 35 14 -26 19 -23 23 27
30 35 6 49 4 61 -9 11 -11 26 -14 47 -10 44 8 144 16 192 15 80 -1 225 -47
225 -70 0 -6 -12 -16 -26 -22 -22 -10 -27 -9 -35 4 -6 10 -17 14 -30 11 -14
-4 -27 0 -35 11 -8 12 -19 16 -33 11 -17 -5 -20 -12 -15 -33 4 -15 9 -29 11
-31 2 -3 37 -6 78 -7 65 -2 77 0 89 18 11 15 20 18 38 12 27 -9 59 -6 73 7 12
12 -53 68 -81 69 -23 0 -80 26 -89 41 -4 5 -19 9 -36 9 -16 0 -29 5 -29 11 0
6 -7 8 -16 5 -21 -8 -74 15 -74 32 0 18 -55 65 -93 78 -50 18 -56 38 -22 74
35 36 70 37 69 3 -1 -24 10 -30 21 -13 10 16 42 12 49 -6 3 -9 3 -20 0 -25 -3
-6 4 -7 19 -4 18 5 28 1 40 -18 9 -14 31 -33 49 -43 124 -66 115 -63 251 -64
l127 0 0 830 0 830 -1760 0 -1760 0 0 -1195z m1378 353 c31 -31 0 -105 -33
-78 -17 14 -19 43 -5 71 12 22 21 24 38 7z m194 -119 c19 -10 20 -16 13 -149
l-7 -138 78 -6 c44 -4 112 -8 152 -9 l72 -1 0 -42 c0 -52 -8 -74 -26 -74 -16
0 -34 -39 -34 -76 0 -24 -1 -24 -25 -8 -20 13 -39 15 -93 10 -37 -4 -77 -7
-90 -7 -22 -1 -22 -2 -6 -20 9 -10 14 -25 10 -34 -3 -9 -1 -25 4 -35 7 -13 7
-21 0 -25 -5 -3 -10 3 -10 14 0 12 -4 21 -10 21 -5 0 -10 11 -10 24 0 23 -22
51 -32 41 -3 -3 -18 -1 -33 5 -15 6 -26 13 -23 16 3 2 17 0 32 -5 18 -7 26 -7
26 0 0 6 5 7 10 4 6 -3 10 -1 10 5 0 7 -7 10 -14 7 -19 -8 -67 17 -92 45 -16
19 -16 20 -1 9 35 -27 25 -4 -16 40 -45 46 -116 74 -165 65 -13 -3 -20 -1 -17
5 4 5 15 9 26 9 23 0 61 18 71 34 11 17 9 124 -2 131 -5 3 -10 13 -10 22 0 31
-31 53 -76 53 -24 0 -46 -4 -49 -10 -13 -20 -53 -10 -79 21 -28 33 -33 55 -13
62 25 11 408 7 429 -4z m-512 -59 c6 -12 10 -35 8 -53 -2 -27 -8 -33 -30 -35
-26 -3 -28 -1 -28 33 0 39 15 75 30 75 5 0 14 -9 20 -20z m128 -134 c23 -23
26 -180 4 -199 -22 -18 -83 -116 -91 -146 -6 -21 -15 -27 -47 -32 -60 -10
-410 0 -441 12 -28 11 -28 12 22 24 68 16 115 38 145 66 30 30 145 52 193 38
18 -5 33 -9 33 -9 1 0 -3 16 -9 35 -11 38 -35 46 -57 20 -18 -22 -37 -18 -43
8 -28 122 -31 158 -15 173 25 25 75 33 186 30 80 -2 107 -6 120 -20z m1446
-56 c42 -13 76 -53 76 -87 0 -34 -21 -38 -73 -14 -25 12 -50 21 -56 21 -5 0
-18 10 -28 23 -20 26 -142 55 -153 37 -4 -7 -21 -7 -46 -2 l-39 9 40 8 c112
23 220 25 279 5z m-648 -17 c-7 -7 -26 7 -26 19 0 6 6 6 15 -2 9 -7 13 -15 11
-17z m189 -34 c3 -3 -6 -16 -20 -29 -53 -50 -23 -121 59 -138 l41 -8 -35 -8
c-19 -5 -60 -26 -90 -47 -36 -26 -56 -35 -59 -27 -2 7 -8 16 -14 19 -5 4 -12
27 -14 53 -4 32 -12 50 -24 57 -15 8 -19 21 -19 69 0 53 2 59 23 62 33 5 146
3 152 -3z m-177 -131 c11 -14 10 -16 -7 -11 -12 3 -21 9 -21 12 0 8 12 23 14
19 1 -2 7 -11 14 -20z m789 -33 c3 -9 -2 -24 -11 -34 -40 -45 -1 -42 54 4 24
20 47 34 53 32 20 -6 17 -23 -8 -53 -36 -40 -51 -72 -60 -121 -8 -51 -23 -63
-44 -37 -9 11 -31 26 -48 33 -18 7 -33 17 -33 21 0 4 -26 15 -57 24 -109 31
-197 63 -200 72 -2 5 30 19 70 31 114 36 133 38 178 18 39 -18 40 -18 55 3 18
26 42 29 51 7z m-764 -132 c-7 -2 -19 -2 -25 0 -7 3 -2 5 12 5 14 0 19 -2 13
-5z m-199 -19 c3 -8 2 -12 -4 -9 -6 3 -10 10 -10 16 0 14 7 11 14 -7z m-34
-14 c0 -5 -7 -10 -16 -10 -8 0 -12 5 -9 10 3 6 10 10 16 10 5 0 9 -4 9 -10z
m239 -62 c19 -24 21 -32 11 -38 -16 -10 -70 24 -70 44 0 36 29 33 59 -6z
m-487 -38 c12 -13 15 -26 10 -45 l-7 -26 -34 41 -34 42 29 -18 29 -18 -30 33
c-29 32 -29 33 -5 21 14 -7 33 -21 42 -30z m258 28 c0 -6 10 -22 22 -35 19
-20 20 -26 8 -33 -9 -6 -23 -2 -42 11 -30 22 -35 38 -16 57 15 15 28 15 28 0z
m-517 -39 c31 -16 87 -71 87 -85 0 -6 7 -17 15 -24 8 -7 15 -19 15 -27 0 -13
-2 -13 -17 -2 -15 12 -16 12 -9 -6 16 -39 18 -55 9 -55 -15 0 -44 36 -36 43 3
4 -2 14 -13 22 -10 8 -15 15 -11 15 10 0 -60 99 -83 117 -13 11 -13 12 3 13
10 0 28 -5 40 -11z m-106 -11 c-17 -48 -17 -57 0 -62 30 -10 103 -86 103 -107
0 -31 -38 -14 -80 35 -19 22 -45 51 -57 64 -12 12 -18 22 -14 22 5 0 14 14 20
30 5 17 15 30 22 30 6 0 9 -6 6 -12z m243 -22 c61 -52 70 -61 70 -73 0 -7 7
-13 15 -13 8 0 15 -2 15 -4 0 -2 3 -12 7 -22 5 -14 3 -16 -11 -11 -16 6 -16 5
-1 -15 8 -13 15 -26 15 -30 0 -13 -24 -9 -49 8 -17 12 -20 19 -11 24 9 6 7 11
-9 19 -11 7 -21 17 -21 24 0 7 -9 18 -20 25 -12 7 -18 17 -15 21 2 5 -2 12
-11 15 -8 3 -12 10 -9 16 3 6 0 13 -9 16 -8 3 -17 12 -20 20 -8 21 30 9 64
-20z m-312 -42 c36 -21 64 -61 68 -95 3 -23 0 -27 -14 -22 -51 18 -125 133
-85 133 2 0 17 -7 31 -16z m-67 -35 c11 -6 18 -16 16 -24 -3 -7 1 -22 9 -34 8
-11 12 -21 7 -21 -4 0 -20 18 -35 39 -38 53 -37 62 3 40z m-72 -19 c10 -5 21
-17 25 -25 4 -13 -1 -11 -24 5 -40 29 -40 42 -1 20z m-249 -64 c0 -3 -4 -8
-10 -11 -5 -3 -10 -1 -10 4 0 6 5 11 10 11 6 0 10 -2 10 -4z m305 -6 c15 -7 9
-9 -25 -9 -33 -1 -41 2 -30 9 18 12 28 12 55 0z m1492 -14 c4 -3 3 -9 0 -13
-4 -4 -12 -2 -18 4 -8 8 -18 8 -35 1 -29 -13 -66 -2 -44 13 15 10 86 6 97 -5z
m663 4 c0 -5 -4 -10 -10 -10 -5 0 -10 5 -10 10 0 6 5 10 10 10 6 0 10 -4 10
-10z m-2045 -10 c-3 -5 -2 -10 4 -10 5 0 13 5 16 10 6 11 68 14 77 4 15 -14
-8 -45 -47 -64 -33 -16 -48 -18 -69 -10 -24 9 -25 12 -14 31 10 17 10 23 0 26
-18 7 -4 23 19 23 11 0 17 -4 14 -10z m214 -12 c11 -7 16 -19 13 -30 -5 -20
-28 -24 -35 -5 -2 6 -3 -1 -1 -17 3 -22 1 -27 -11 -22 -8 3 -15 0 -15 -7 0
-20 -70 -61 -83 -48 -12 12 5 51 35 85 10 10 15 23 12 28 -3 4 2 8 11 8 9 0
13 5 10 10 -9 14 41 13 64 -2z m109 3 c11 -7 9 -16 -11 -47 -13 -22 -27 -49
-31 -61 -4 -13 -14 -23 -22 -23 -21 0 -17 48 7 78 12 16 16 28 10 30 -24 8
-10 23 29 31 3 0 11 -3 18 -8z m92 -11 c0 -5 -4 -10 -9 -10 -6 0 -13 5 -16 10
-3 6 1 10 9 10 9 0 16 -4 16 -10z m1895 -10 c-3 -5 -11 -10 -16 -10 -6 0 -7 5
-4 10 3 6 11 10 16 10 6 0 7 -4 4 -10z m-925 -14 c0 -2 -7 -7 -16 -10 -8 -3
-12 -2 -9 4 6 10 25 14 25 6z m-2320 -10 c0 -3 -4 -8 -10 -11 -5 -3 -10 -1
-10 4 0 6 5 11 10 11 6 0 10 -2 10 -4z m140 1 c0 -2 -9 -12 -20 -22 -19 -18
-20 -17 -20 3 0 15 6 22 20 22 11 0 20 -2 20 -3z m1206 -24 c-10 -10 -19 5
-10 18 6 11 8 11 12 0 2 -7 1 -15 -2 -18z m1911 -14 c-9 -5 -22 -7 -28 -3 -6
3 -15 0 -20 -7 -7 -11 -9 -10 -9 4 0 13 8 17 38 17 30 -1 34 -3 19 -11z m-77
-19 c0 -24 -6 -25 -26 -6 -19 20 -18 26 6 26 13 0 20 -7 20 -20z m-1152 -71
c11 0 12 -2 4 -6 -6 -2 -10 -9 -7 -13 3 -5 12 -7 20 -3 10 3 15 -1 15 -15 0
-12 5 -24 10 -27 6 -3 10 -17 10 -30 0 -13 5 -27 12 -31 8 -5 9 -2 4 11 -4 11
-1 22 6 27 10 8 10 11 1 15 -26 10 -12 22 15 13 l27 -10 -25 19 c-13 11 -27
18 -31 16 -3 -3 -4 6 -2 20 4 18 10 23 31 21 14 -2 28 -9 30 -17 9 -29 24 -40
38 -28 7 6 18 8 24 4 13 -8 13 -65 0 -65 -5 0 -10 -6 -10 -14 0 -21 -28 -28
-38 -9 -6 11 -16 13 -32 8 -18 -6 -20 -9 -9 -16 11 -7 9 -9 -8 -9 -12 0 -23
-6 -26 -12 -3 -10 -9 -10 -27 0 -12 8 -19 9 -16 3 5 -7 -28 -9 -106 -5 -144 7
-155 6 -179 -6 -25 -14 -34 6 -24 56 5 29 10 35 25 31 11 -3 22 0 25 7 3 8 7
8 11 -1 8 -17 22 -16 40 2 14 13 22 14 111 2 12 -1 30 -10 41 -20 10 -9 28
-17 41 -17 20 0 19 3 -14 36 -22 21 -33 40 -28 47 4 7 8 15 9 20 4 19 6 21 11
10 2 -7 12 -13 21 -14z m-128 -9 c0 -5 -4 -10 -10 -10 -5 0 -10 5 -10 10 0 6
5 10 10 10 6 0 10 -4 10 -10z m679 -29 c10 -10 29 -22 41 -26 16 -5 19 -10 11
-18 -7 -7 -18 -12 -26 -12 -8 0 -16 -4 -17 -10 -4 -15 80 -18 128 -4 37 11 40
14 26 26 -15 11 -15 12 6 13 13 0 22 -6 22 -15 0 -8 6 -15 13 -15 6 -1 -1 -7
-18 -15 l-30 -13 50 -2 c28 -1 73 -2 100 -1 40 0 45 -2 25 -9 -17 -5 -19 -8
-7 -9 9 -1 17 -5 17 -11 0 -13 -6 -13 -32 1 -17 9 -24 8 -32 -3 -17 -23 -54
-28 -85 -12 -16 8 -56 15 -88 15 -82 2 -95 0 -89 -10 9 -15 -53 -35 -100 -32
-22 1 -29 31 -7 31 7 0 13 4 13 10 0 5 -8 9 -17 8 -29 -3 -123 14 -129 23 -3
5 -10 9 -15 9 -6 0 -7 -5 -3 -12 4 -7 3 -8 -4 -4 -7 4 -12 13 -12 21 0 10 7
12 31 5 16 -5 36 -7 44 -4 7 3 16 1 20 -5 8 -14 55 -14 55 -1 0 16 18 11 22
-6 3 -14 6 -13 22 5 19 21 19 21 -10 22 -16 1 -35 1 -42 0 -9 -2 -7 5 5 17 10
10 22 17 27 14 4 -2 12 2 17 9 6 9 12 10 17 4 9 -13 52 -15 52 -2 0 5 -9 11
-20 14 -11 3 -20 9 -20 14 0 15 19 10 39 -10z m-639 -3 c0 -11 -12 -10 -30 2
-12 7 -10 9 8 7 12 0 22 -5 22 -9z m770 -3 c0 -2 -26 -3 -57 -3 -42 1 -50 3
-28 7 28 6 85 3 85 -4z m-993 -42 c3 -23 -2 -34 -21 -47 -24 -15 -26 -15 -36
3 -8 15 -6 24 8 37 9 10 18 21 18 26 3 18 4 20 16 16 6 -2 13 -18 15 -35z
m716 6 c-9 -9 -12 -7 -10 9 1 14 5 18 11 12 7 -7 6 -14 -1 -21z m-52 12 c-12
-8 -51 -4 -51 5 0 2 15 4 33 4 22 0 28 -3 18 -9z m329 -11 c0 -5 -4 -10 -10
-10 -5 0 -10 5 -10 10 0 6 5 10 10 10 6 0 10 -4 10 -10z m-410 -50 c0 -5 -5
-10 -11 -10 -5 0 -7 5 -4 10 3 6 8 10 11 10 2 0 4 -4 4 -10z m-1103 -56 c-3
-3 -12 -4 -19 -1 -8 3 -5 6 6 6 11 1 17 -2 13 -5z"/>
<path d="M2848 163 c6 -2 18 -2 25 0 6 3 1 5 -13 5 -14 0 -19 -2 -12 -5z"/>
<path d="M2728 133 c7 -3 16 -2 19 1 4 3 -2 6 -13 5 -11 0 -14 -3 -6 -6z"/>
<path d="M3000 645 c-14 -8 -37 -12 -51 -9 -14 2 -38 -2 -54 -10 -33 -17 -27
-21 48 -31 55 -7 97 12 97 45 0 24 -6 24 -40 5z"/>
<path d="M3417 644 c-10 -11 -9 -42 3 -49 6 -4 33 -8 60 -10 49 -4 50 -3 50
25 0 23 -5 31 -26 36 -14 4 -36 2 -49 -4 -16 -7 -25 -8 -27 -1 -2 6 -7 7 -11
3z"/>
<path d="M2821 547 c-6 -8 -14 -28 -17 -44 -5 -26 -2 -32 16 -38 27 -9 27 -9
35 48 6 38 4 47 -8 47 -8 0 -20 -6 -26 -13z"/>
<path d="M2965 551 c-6 -11 9 -23 19 -14 9 9 7 23 -3 23 -6 0 -12 -4 -16 -9z"/>
<path d="M3335 540 c-4 -6 7 -10 24 -10 17 0 31 5 31 10 0 6 -11 10 -24 10
-14 0 -28 -4 -31 -10z"/>
<path d="M2925 502 c-12 -9 -27 -26 -35 -36 -14 -18 -13 -19 4 -13 10 4 36 2
57 -5 49 -14 61 -3 43 40 -16 36 -38 41 -69 14z"/>
</g>
</svg>
